<?xml version="1.0" standalone="no"?>
<!DOCTYPE svg PUBLIC "-//W3C//DTD SVG 20010904//EN"
 "http://www.w3.org/TR/2001/REC-SVG-20010904/DTD/svg10.dtd">
<svg version="1.0" xmlns="http://www.w3.org/2000/svg"
 width="1206.000000pt" height="1206.000000pt" viewBox="0 0 1206.000000 1206.000000"
 preserveAspectRatio="xMidYMid meet">
<metadata>
Created by potrace 1.14, written by Peter Selinger 2001-2017
</metadata>
<g transform="translate(0.000000,1206.000000) scale(0.100000,-0.100000)"
fill="#000000" stroke="none">
<path d="M2535 11753 l-339 -3 -28 -27 -28 -27 0 -5661 0 -5661 31 -30 30 -29
377 -5 c434 -6 1069 3 1095 14 10 5 24 21 32 37 13 24 15 713 14 5486 -1 3002
-5 5550 -8 5662 l-6 204 -28 21 c-28 20 -38 21 -415 22 -213 0 -540 -1 -727
-3z"/>
<path d="M4287 11751 c-21 -5 -48 -18 -60 -30 l-22 -22 -3 -5661 c-2 -5395 -1
-5662 15 -5681 40 -43 72 -51 213 -51 114 0 141 3 175 19 37 18 41 24 47 70 3
28 7 509 7 1071 2 2344 14 4324 26 4324 15 0 124 -120 232 -257 429 -540 678
-1193 708 -1848 10 -217 12 -233 50 -273 30 -33 38 -36 98 -40 65 -4 66 -4
108 35 l42 40 9 104 c15 179 37 356 54 437 43 207 150 462 271 644 77 117 271
320 368 385 132 88 322 168 465 194 102 19 369 17 486 -4 540 -96 814 -497
893 -1302 32 -321 32 -1099 1 -1450 -95 -1060 -433 -1605 -1103 -1779 -209
-55 -519 -69 -661 -31 -224 60 -362 209 -387 420 -14 111 -9 148 29 229 53
113 131 181 277 241 52 21 85 44 126 86 106 107 146 234 128 400 -42 370 -308
675 -664 760 -145 34 -344 24 -480 -24 -266 -95 -479 -329 -556 -611 -19 -73
-21 -97 -17 -280 5 -185 8 -210 36 -319 77 -289 204 -508 417 -723 144 -145
278 -241 460 -330 286 -139 495 -183 865 -184 1315 -1 2232 452 2666 1319 190
380 285 790 313 1353 23 448 -53 821 -241 1190 -242 474 -614 833 -1123 1083
-258 127 -484 201 -771 251 -122 22 -191 27 -379 31 l-230 5 -90 -35 c-49 -19
-190 -84 -312 -145 -300 -149 -326 -157 -483 -157 -164 0 -214 19 -309 114
-144 143 -201 349 -201 726 0 262 32 433 107 577 89 170 248 259 438 245 115
-9 163 -26 415 -149 405 -198 424 -204 678 -195 294 10 574 64 867 168 150 53
428 193 560 281 433 290 746 667 923 1113 97 245 141 471 149 765 16 589 -89
1131 -303 1566 -440 895 -1394 1358 -2742 1331 -280 -5 -355 -16 -551 -79
-378 -120 -706 -365 -920 -688 -65 -99 -146 -273 -181 -390 -48 -163 -61 -256
-61 -440 0 -181 13 -248 70 -374 66 -147 188 -291 318 -376 374 -246 877 -162
1151 194 124 161 187 351 181 544 -4 102 -7 113 -42 184 -25 52 -54 91 -90
125 -57 51 -60 53 -179 107 -103 46 -168 108 -216 205 -36 73 -37 79 -35 176
4 211 88 348 268 435 142 70 311 86 562 55 438 -54 746 -233 964 -559 193
-288 296 -646 361 -1251 18 -169 18 -1296 0 -1450 -43 -369 -98 -590 -197
-790 -162 -329 -428 -500 -831 -534 -259 -22 -468 15 -677 120 -301 152 -560
463 -700 839 -73 198 -109 375 -128 636 -12 173 -21 201 -75 235 -38 23 -122
25 -164 4 -52 -27 -62 -62 -71 -249 -10 -198 -21 -291 -55 -476 -97 -532 -362
-1082 -723 -1500 -106 -124 -159 -180 -169 -180 -9 0 -21 2464 -23 4415 0 523
-3 968 -7 989 -12 68 -40 80 -195 83 -73 1 -149 -2 -170 -6z"/>
</g>
</svg>
